<svg width="116" height="64" viewBox="0 0 116 64" fill="none" xmlns="http://www.w3.org/2000/svg">
<path d="M12 0.5H4C2.067 0.5 0.5 2.067 0.5 4V12C0.5 13.933 2.067 15.5 4 15.5H12C13.933 15.5 15.5 13.933 15.5 12V4C15.5 2.067 13.933 0.5 12 0.5Z" fill="#18181B" stroke="#27272A"/>
<path d="M32 0.5H24C22.067 0.5 20.5 2.067 20.5 4V12C20.5 13.933 22.067 15.5 24 15.5H32C33.933 15.5 35.5 13.933 35.5 12V4C35.5 2.067 33.933 0.5 32 0.5Z" fill="#0C4A6E" stroke="#0369A1"/>
<path d="M52 0.5H44C42.067 0.5 40.5 2.067 40.5 4V12C40.5 13.933 42.067 15.5 44 15.5H52C53.933 15.5 55.5 13.933 55.5 12V4C55.5 2.067 53.933 0.5 52 0.5Z" fill="#075985" stroke="#0284C7"/>
<path d="M72 0.5H64C62.067 0.5 60.5 2.067 60.5 4V12C60.5 13.933 62.067 15.5 64 15.5H72C73.933 15.5 75.5 13.933 75.5 12V4C75.5 2.067 73.933 0.5 72 0.5Z" fill="#0369A1" stroke="#0EA5E9"/>
<path d="M92 0.5H84C82.067 0.5 80.5 2.067 80.5 4V12C80.5 13.933 82.067 15.5 84 15.5H92C93.933 15.5 95.5 13.933 95.5 12V4C95.5 2.067 93.933 0.5 92 0.5Z" fill="#0284C7" stroke="#38BDF8"/>
<path d="M112 0.5H104C102.067 0.5 100.5 2.067 100.5 4V12C100.5 13.933 102.067 15.5 104 15.5H112C113.933 15.5 115.5 13.933 115.5 12V4C115.5 2.067 113.933 0.5 112 0.5Z" fill="#0EA5E9" stroke="#7DD3FC"/>
<path d="M8.7614 31.9091V34.9773H0.340942V31.9091H8.7614ZM2.09662 45V31.2443C2.09662 30.2329 2.28697 29.3949 2.66765 28.7301C3.04833 28.0597 3.57674 27.5597 4.25287 27.2301C4.92901 26.8949 5.71026 26.7273 6.59662 26.7273C7.17617 26.7273 7.72162 26.7727 8.23299 26.8636C8.75003 26.9489 9.13356 27.0256 9.38356 27.0937L8.71878 30.1449C8.56537 30.0937 8.37787 30.0511 8.15628 30.017C7.94037 29.9829 7.73583 29.9659 7.54265 29.9659C7.05401 29.9659 6.71878 30.0739 6.53696 30.2898C6.35515 30.5057 6.26424 30.8011 6.26424 31.1761V45H2.09662Z" fill="white"/>
<path d="M16.4553 45.2472C15.0803 45.2472 13.8985 44.9659 12.9098 44.4034C11.9269 43.8352 11.1684 43.0454 10.6343 42.0341C10.1059 41.017 9.84165 39.8381 9.84165 38.4972C9.84165 37.1506 10.1059 35.9716 10.6343 34.9602C11.1684 33.9432 11.9269 33.1534 12.9098 32.5909C13.8985 32.0227 15.0803 31.7386 16.4553 31.7386C17.8303 31.7386 19.0093 32.0227 19.9922 32.5909C20.9809 33.1534 21.7394 33.9432 22.2678 34.9602C22.8019 35.9716 23.0689 37.1506 23.0689 38.4972C23.0689 39.8381 22.8019 41.017 22.2678 42.0341C21.7394 43.0454 20.9809 43.8352 19.9922 44.4034C19.0093 44.9659 17.8303 45.2472 16.4553 45.2472ZM16.4809 42.1023C16.9809 42.1023 17.4042 41.9489 17.7507 41.642C18.0973 41.3352 18.3615 40.9091 18.5434 40.3636C18.7309 39.8182 18.8246 39.1875 18.8246 38.4716C18.8246 37.7443 18.7309 37.1079 18.5434 36.5625C18.3615 36.017 18.0973 35.5909 17.7507 35.2841C17.4042 34.9773 16.9809 34.8239 16.4809 34.8239C15.9638 34.8239 15.5263 34.9773 15.1684 35.2841C14.8161 35.5909 14.5462 36.017 14.3587 36.5625C14.1769 37.1079 14.086 37.7443 14.086 38.4716C14.086 39.1875 14.1769 39.8182 14.3587 40.3636C14.5462 40.9091 14.8161 41.3352 15.1684 41.642C15.5263 41.9489 15.9638 42.1023 16.4809 42.1023Z" fill="white"/>
<path d="M29.3715 27.5454V45H25.2039V27.5454H29.3715Z" fill="white"/>
<path d="M36.1918 27.5454V45H32.0242V27.5454H36.1918Z" fill="white"/>
<path d="M44.9553 45.2472C43.5803 45.2472 42.3985 44.9659 41.4098 44.4034C40.4269 43.8352 39.6684 43.0454 39.1343 42.0341C38.6059 41.017 38.3417 39.8381 38.3417 38.4972C38.3417 37.1506 38.6059 35.9716 39.1343 34.9602C39.6684 33.9432 40.4269 33.1534 41.4098 32.5909C42.3985 32.0227 43.5803 31.7386 44.9553 31.7386C46.3303 31.7386 47.5093 32.0227 48.4922 32.5909C49.4809 33.1534 50.2394 33.9432 50.7678 34.9602C51.3019 35.9716 51.5689 37.1506 51.5689 38.4972C51.5689 39.8381 51.3019 41.017 50.7678 42.0341C50.2394 43.0454 49.4809 43.8352 48.4922 44.4034C47.5093 44.9659 46.3303 45.2472 44.9553 45.2472ZM44.9809 42.1023C45.4809 42.1023 45.9042 41.9489 46.2507 41.642C46.5973 41.3352 46.8615 40.9091 47.0434 40.3636C47.2309 39.8182 47.3246 39.1875 47.3246 38.4716C47.3246 37.7443 47.2309 37.1079 47.0434 36.5625C46.8615 36.017 46.5973 35.5909 46.2507 35.2841C45.9042 34.9773 45.4809 34.8239 44.9809 34.8239C44.4638 34.8239 44.0263 34.9773 43.6684 35.2841C43.3161 35.5909 43.0462 36.017 42.8587 36.5625C42.6769 37.1079 42.586 37.7443 42.586 38.4716C42.586 39.1875 42.6769 39.8182 42.8587 40.3636C43.0462 40.9091 43.3161 41.3352 43.6684 41.642C44.0263 41.9489 44.4638 42.1023 44.9809 42.1023Z" fill="white"/>
<path d="M55.8686 45L52.4595 31.9091H56.6442L58.4084 40.2954H58.5192L60.4113 31.9091H64.4936L66.4368 40.2358H66.5476L68.2607 31.9091H72.4453L69.0277 45H64.5703L62.5249 37.3722H62.38L60.3345 45H55.8686Z" fill="white"/>
<path d="M79.2742 45V31.9091H83.2373V34.3125H83.3821C83.6549 33.517 84.1151 32.8892 84.7628 32.429C85.4105 31.9687 86.1833 31.7386 87.081 31.7386C87.9901 31.7386 88.7685 31.9716 89.4162 32.4375C90.064 32.9034 90.4759 33.5284 90.652 34.3125H90.7884C91.0327 33.5341 91.51 32.9119 92.2202 32.446C92.9304 31.9744 93.7685 31.7386 94.7344 31.7386C95.973 31.7386 96.9787 32.1364 97.7515 32.9318C98.5242 33.7216 98.9105 34.8068 98.9105 36.1875V45H94.7429V37.142C94.7429 36.4886 94.5753 35.9915 94.2401 35.6506C93.9049 35.304 93.4702 35.1307 92.9361 35.1307C92.3622 35.1307 91.9105 35.3182 91.581 35.6932C91.2571 36.0625 91.0952 36.5597 91.0952 37.1847V45H87.0895V37.0994C87.0895 36.4915 86.9248 36.0114 86.5952 35.6591C86.2657 35.3068 85.831 35.1307 85.2912 35.1307C84.9276 35.1307 84.6066 35.2187 84.3282 35.3949C84.0497 35.5653 83.831 35.8097 83.6719 36.1278C83.5185 36.446 83.4418 36.821 83.4418 37.2528V45H79.2742Z" fill="white"/>
<path d="M107.612 45.2472C106.243 45.2472 105.061 44.9773 104.067 44.4375C103.078 43.892 102.317 43.1165 101.783 42.1108C101.254 41.0994 100.99 39.8977 100.99 38.5057C100.99 37.1534 101.257 35.9716 101.791 34.9602C102.325 33.9432 103.078 33.1534 104.05 32.5909C105.021 32.0227 106.166 31.7386 107.484 31.7386C108.416 31.7386 109.269 31.8835 110.041 32.1733C110.814 32.4631 111.482 32.892 112.044 33.4602C112.607 34.0284 113.044 34.7301 113.357 35.5653C113.669 36.3949 113.825 37.3466 113.825 38.4204V39.4602H102.447V37.0398H109.947C109.942 36.5966 109.837 36.2017 109.632 35.8551C109.428 35.5085 109.146 35.2386 108.788 35.0454C108.436 34.8466 108.03 34.7472 107.57 34.7472C107.104 34.7472 106.686 34.8523 106.317 35.0625C105.947 35.267 105.655 35.5483 105.439 35.9062C105.223 36.2585 105.109 36.6591 105.098 37.1079V39.571C105.098 40.1051 105.203 40.5739 105.413 40.9773C105.624 41.375 105.922 41.6847 106.308 41.9062C106.695 42.1278 107.155 42.2386 107.689 42.2386C108.058 42.2386 108.393 42.1875 108.695 42.0852C108.996 41.9829 109.254 41.8324 109.47 41.6335C109.686 41.4347 109.848 41.1903 109.956 40.9006L113.783 41.0114C113.624 41.8693 113.274 42.6165 112.734 43.2528C112.2 43.8835 111.499 44.375 110.629 44.7273C109.76 45.0739 108.754 45.2472 107.612 45.2472Z" fill="white"/>
</svg>
